<svg height="800" viewBox="0 0 512 512" width="800" xmlns="http://www.w3.org/2000/svg"><path d="m80 208c-.8 0-2.4 0-3.2-.8-4-1.6-5.6-6.4-4-10.4l57.6-129.6c4.8-12 16.8-19.2 28.8-19.2h16.8c4.8 0 8 3.2 8 8s-3.2 8-8 8h-16.8c-6.4 0-12 4-14.4 9.6l-57.6 129.6c-1.6 3.2-4 4.8-7.2 4.8z" fill="#35495c"/><path d="m432 208c-3.2 0-5.6-1.6-7.2-4.8l-57.6-129.6c-2.4-5.6-8-9.6-14.4-9.6h-16.8c-4.8 0-8-3.2-8-8s3.2-8 8-8h16.8c12.8 0 24 7.2 29.6 19.2l57.6 129.6c1.6 4 0 8.8-4 10.4-1.6.8-3.2.8-4 .8z" fill="#35495c"/><path d="m328 80h-144c-8.8 0-16-7.2-16-16v-16c0-8.8 7.2-16 16-16h144c8.8 0 16 7.2 16 16v16c0 8.8-7.2 16-16 16z" fill="#b06328"/><path d="m441.6 480h-371.2c-16.8 0-31.2-12.8-32-29.6l-14.4-218.4h464l-14.4 218.4c-.8 16.8-14.4 29.6-32 29.6z" fill="#ffcb5b"/><path d="m496 232h-480c-8.8 0-16-5.6-16-13.6v-53.6c0-7.2 7.2-12.8 16-12.8h480c8.8 0 16 5.6 16 13.6v53.6c0 7.2-7.2 12.8-16 12.8z" fill="#ffcb5b"/><circle cx="80" cy="192" fill="#b06328" r="8"/><circle cx="432" cy="192" fill="#b06328" r="8"/><path d="m473.6 450.4 14.4-218.4h-192-40-232l1.6 24h365.6c8.8 0 16 7.2 16 16.8l-6.4 176c0 8.8-7.2 15.2-16 15.2h-296.8c-8.8 0-16 7.2-16 16h184 40 145.6c17.6 0 31.2-12.8 32-29.6z" fill="#f7b84e"/><path d="m487.2 240 .8-8h-464l.8 8z" fill="#f19920"/><path d="m496 184v16c0 8.8-7.2 16-16 16h-448c-8.8 0-16 7.2-16 16h480c8.8 0 16-7.2 16-16v-48c-8.8 0-16 7.2-16 16z" fill="#f7b84e"/><g fill="#f19920"><path d="m184 424c-4.8 0-8-3.2-8-8v-112c0-4.8 3.2-8 8-8 4.8 0 8 3.2 8 8v112c0 4.8-3.2 8-8 8z"/><path d="m232 424c-4.8 0-8-3.2-8-8v-112c0-4.8 3.2-8 8-8 4.8 0 8 3.2 8 8v112c0 4.8-3.2 8-8 8z"/><path d="m280 424c-4.8 0-8-3.2-8-8v-112c0-4.8 3.2-8 8-8 4.8 0 8 3.2 8 8v112c0 4.8-3.2 8-8 8z"/><path d="m328 424c-4.8 0-8-3.2-8-8v-112c0-4.8 3.2-8 8-8 4.8 0 8 3.2 8 8v112c0 4.8-3.2 8-8 8z"/><path d="m376 424c-4.8 0-8-3.2-8-8v-112c0-4.8 3.2-8 8-8 4.8 0 8 3.2 8 8v112c0 4.8-3.2 8-8 8z"/><path d="m136 424c-4.8 0-8-3.2-8-8v-112c0-4.8 3.2-8 8-8 4.8 0 8 3.2 8 8v112c0 4.8-3.2 8-8 8z"/></g><path d="m328 64h-160c0 8.8 7.2 16 16 16h144c8.8 0 16-7.2 16-16v-16c-8.8 0-16 7.2-16 16z" fill="#a35623"/></svg>