<svg height="800" viewBox="0 0 511.99 511.99" width="800" xmlns="http://www.w3.org/2000/svg"><path d="m202.658 149.329c-5.89 0-10.671-4.766-10.671-10.656v-127.996c0-5.891 4.781-10.671 10.671-10.671 5.891 0 10.672 4.781 10.672 10.671v127.996c-.001 5.89-4.782 10.656-10.672 10.656z" fill="#cacfd6"/><path d="m309.334 149.329c-5.906 0-10.688-4.766-10.688-10.656v-127.996c0-5.891 4.781-10.671 10.688-10.671 5.875 0 10.656 4.781 10.656 10.671v127.996c0 5.89-4.781 10.656-10.656 10.656z" fill="#cacfd6"/><path d="m255.984 511.99c-5.875 0-10.656-4.781-10.656-10.672v-362.645c0-5.89 4.781-10.671 10.656-10.671 5.906 0 10.672 4.781 10.672 10.671v362.646c0 5.89-4.765 10.671-10.672 10.671z" fill="#aab2bc"/><path d="m309.303 85.331c-1.844 0-3.75-.484-5.469-1.516l-106.66-63.998c-5.047-3.031-6.688-9.578-3.656-14.625 3.031-5.062 9.578-6.703 14.625-3.671l106.661 63.998c5.062 3.031 6.688 9.593 3.656 14.64-2.001 3.328-5.532 5.172-9.157 5.172z" fill="#cacfd6"/><path d="m202.673 149.329c-3.625 0-7.156-1.844-9.156-5.172-3.031-5.047-1.391-11.609 3.656-14.64l106.66-63.998c5.062-3.031 11.594-1.391 14.625 3.656 3.031 5.062 1.406 11.609-3.656 14.64l-106.661 63.998c-1.718 1.032-3.608 1.516-5.468 1.516z" fill="#cacfd6"/><path d="m187.611 234.67c-3.875 0-7.625-2.125-9.515-5.828-2.672-5.25-.594-11.672 4.656-14.344l125.488-63.998c5.25-2.672 11.688-.594 14.344 4.656 2.688 5.25.594 11.671-4.656 14.343l-125.473 63.998c-1.563.798-3.219 1.173-4.844 1.173z" fill="#cacfd6"/><path d="m335.678 298.668c-1.406 0-2.844-.281-4.219-.875l-148.082-63.998c-5.422-2.344-7.906-8.625-5.562-14.031 2.328-5.406 8.609-7.891 14.015-5.562l148.066 63.998c5.406 2.344 7.906 8.625 5.562 14.031-1.718 4.032-5.655 6.437-9.78 6.437z" fill="#cacfd6"/><path d="m165.018 362.666c-4.328 0-8.391-2.64-9.984-6.921-2.078-5.516.719-11.672 6.234-13.734l170.659-63.998c5.531-2.078 11.656.719 13.75 6.234 2.062 5.516-.75 11.672-6.25 13.733l-170.66 63.998c-1.249.469-2.499.688-3.749.688z" fill="#cacfd6"/><path d="m358.269 426.665c-1.125 0-2.25-.172-3.375-.547l-193.235-63.999c-5.594-1.858-8.625-7.89-6.766-13.483 1.844-5.594 7.875-8.625 13.469-6.766l193.251 63.999c5.594 1.844 8.625 7.89 6.781 13.468-1.5 4.484-5.656 7.328-10.125 7.328z" fill="#cacfd6"/><path d="m142.425 490.663c-4.609 0-8.843-3-10.218-7.641-1.688-5.655 1.547-11.577 7.187-13.265l215.844-63.998c5.625-1.672 11.562 1.547 13.25 7.202 1.688 5.641-1.531 11.578-7.188 13.25l-215.844 63.999c-1 .312-2.031.453-3.031.453z" fill="#cacfd6"/><g fill="#e6e9ed"><path d="m202.673 85.331c-3.625 0-7.156-1.844-9.156-5.172-3.031-5.047-1.391-11.609 3.656-14.64l106.66-63.998c5.062-3.031 11.594-1.391 14.625 3.671 3.031 5.047 1.406 11.594-3.656 14.625l-106.66 63.998c-1.719 1.032-3.609 1.516-5.469 1.516z"/><path d="m309.303 149.329c-1.844 0-3.75-.484-5.469-1.516l-106.66-63.998c-5.047-3.031-6.688-9.578-3.656-14.64 3.031-5.047 9.578-6.688 14.625-3.656l106.661 63.998c5.062 3.031 6.688 9.593 3.656 14.64-2.001 3.328-5.532 5.172-9.157 5.172z"/><path d="m324.365 234.67c-1.625 0-3.281-.375-4.844-1.172l-125.473-63.998c-5.25-2.672-7.328-9.093-4.656-14.343s9.109-7.328 14.343-4.656l125.504 63.998c5.25 2.672 7.312 9.094 4.656 14.344-1.905 3.702-5.624 5.827-9.53 5.827z"/><path d="m176.315 298.668c-4.125 0-8.062-2.405-9.796-6.437-2.344-5.406.156-11.688 5.562-14.031l148.066-63.998c5.406-2.328 11.688.156 14.031 5.562s-.156 11.687-5.562 14.031l-148.082 63.998c-1.375.594-2.813.875-4.219.875z"/><path d="m346.959 362.666c-1.25 0-2.5-.219-3.719-.688l-170.675-63.998c-5.515-2.062-8.312-8.218-6.25-13.733 2.078-5.516 8.218-8.312 13.734-6.234l170.66 63.998c5.529 2.062 8.311 8.219 6.248 13.734-1.594 4.281-5.654 6.921-9.998 6.921z"/><path d="m153.722 426.665c-4.484 0-8.64-2.844-10.125-7.328-1.859-5.578 1.172-11.624 6.766-13.468l193.252-63.999c5.594-1.859 11.623 1.172 13.467 6.766 1.875 5.594-1.156 11.625-6.748 13.483l-193.253 63.999c-1.125.375-2.25.547-3.359.547z"/><path d="m369.551 490.663c-1 0-2-.141-3.031-.453l-215.829-63.998c-5.656-1.672-8.875-7.609-7.203-13.25 1.688-5.655 7.625-8.874 13.265-7.202l215.829 63.998c5.656 1.688 8.875 7.609 7.188 13.265-1.376 4.64-5.594 7.64-10.219 7.64z"/><path d="m309.334 85.331h-106.676c-5.89 0-10.671-4.766-10.671-10.656s4.781-10.671 10.671-10.671h106.676c5.875 0 10.656 4.781 10.656 10.671s-4.781 10.656-10.656 10.656z"/><path d="m479.986 149.329h-447.979c-5.156 0-9.578-3.688-10.5-8.766-.922-5.062 1.922-10.078 6.75-11.875l170.667-63.998c5.5-2.078 11.656.719 13.718 6.234 2.078 5.516-.719 11.672-6.234 13.734l-115.59 43.343h330.358l-115.592-43.342c-5.531-2.062-8.312-8.219-6.25-13.734s8.219-8.312 13.75-6.234l170.652 63.998c4.812 1.797 7.654 6.812 6.748 11.875-.937 5.077-5.342 8.765-10.498 8.765z"/></g><path d="m341.334 21.333h-170.675c-5.89 0-10.671-4.766-10.671-10.656s4.78-10.672 10.671-10.672h170.675c5.875 0 10.656 4.781 10.656 10.671s-4.781 10.657-10.656 10.657z" fill="#434a54"/><path d="m138.675 511.99c-.609 0-1.234-.047-1.859-.172-5.812-1.016-9.687-6.547-8.656-12.344l63.998-362.661c1.016-5.797 6.547-9.671 12.359-8.656 5.797 1.031 9.672 6.562 8.641 12.358l-63.982 362.661c-.923 5.173-5.423 8.814-10.501 8.814z" fill="#e6e9ed"/><path d="m373.301 511.99c-5.062 0-9.562-3.641-10.469-8.812l-63.998-362.661c-1.031-5.796 2.844-11.328 8.625-12.358 5.812-1.016 11.344 2.859 12.375 8.656l63.998 362.661c1.031 5.797-2.844 11.328-8.656 12.344-.625.123-1.25.17-1.875.17z" fill="#e6e9ed"/><path d="m501.328 181.328h-63.998c-5.906 0-10.688-4.766-10.688-10.656 0-5.891 4.781-10.671 10.688-10.671h63.998c5.875 0 10.656 4.781 10.656 10.671s-4.781 10.656-10.656 10.656z" fill="#ffce54"/><path d="m479.986 213.327h-21.344c-5.875 0-10.656-4.766-10.656-10.656 0-5.891 4.781-10.671 10.656-10.671h21.344c5.875 0 10.654 4.781 10.654 10.671.001 5.89-4.779 10.656-10.654 10.656z" fill="#ffce54"/><path d="m74.662 181.328h-63.999c-5.891 0-10.656-4.766-10.656-10.656 0-5.891 4.766-10.671 10.656-10.671h63.998c5.891 0 10.671 4.781 10.671 10.671.001 5.89-4.78 10.656-10.67 10.656z" fill="#ffce54"/><path d="m53.334 213.327h-21.327c-5.891 0-10.672-4.766-10.672-10.656 0-5.891 4.781-10.671 10.672-10.671h21.327c5.891 0 10.672 4.781 10.672 10.671s-4.781 10.656-10.672 10.656z" fill="#ffce54"/></svg>