<svg height="800" viewBox="0 0 512 512" width="800" xmlns="http://www.w3.org/2000/svg"><path d="m501.801 263.986c0-39.452-29.258-72.063-67.259-77.337 8.291-12.401 13.128-27.307 13.128-43.345 0-43.127-34.961-78.088-78.088-78.088-16.246 0-31.333 4.963-43.829 13.454-14.283-18.44-36.638-30.314-61.767-30.314-31.893 0-59.315 19.121-71.44 46.524-8.431-3.115-17.545-4.817-27.057-4.817-43.127 0-78.088 34.961-78.088 78.088 0 10.543 2.094 20.595 5.881 29.77-19.684 14.178-32.502 37.292-32.502 63.403 0 43.127 34.961 78.088 78.088 78.088 1.695 0 3.375-.06 5.042-.166-.977 4.933-1.493 10.032-1.493 15.252 0 43.127 34.961 78.088 78.088 78.088 31.315 0 58.32-18.436 70.766-45.044 14.109 20.252 37.562 33.507 64.114 33.507 43.127 0 78.088-34.962 78.088-78.088 0-.499-.009-.995-.018-1.491 38.528-4.794 68.346-37.656 68.346-77.484z" fill="#c5824b"/><path d="m103.373 398.971c0-15.74-12.76-28.501-28.501-28.501-10.263 0-19.256 5.427-24.274 13.566-3.623-1.668-7.65-2.604-11.899-2.604-15.739 0-28.5 12.76-28.5 28.501 0 15.74 12.76 28.501 28.501 28.501.8 0 1.59-.042 2.373-.106 1.583 14.241 13.655 25.317 28.319 25.317 15.74 0 28.501-12.76 28.501-28.501 0-5.428-1.519-10.502-4.153-14.82 5.904-5.222 9.633-12.85 9.633-21.353z" fill="#c5824b"/><g fill="#5e282d"><path d="m220.506 442.786c-48.682 0-88.287-39.606-88.287-88.287 0-1.707.05-3.417.149-5.123-45.658-3.339-81.785-41.556-81.785-88.051 0-25.704 11.319-50.157 30.619-66.844-2.656-8.49-3.997-17.315-3.997-26.33 0-48.682 39.606-88.287 88.287-88.287 7.428 0 14.748.916 21.858 2.729 15.611-27.261 44.786-44.436 76.64-44.436 24.439 0 47.254 9.858 63.869 27.326 12.779-6.87 27.036-10.465 41.727-10.465 48.682 0 88.287 39.606 88.287 88.287 0 12.67-2.681 25.036-7.834 36.402 36.157 11.328 61.961 45.341 61.961 84.281 0 41.49-28.936 77.061-68.611 86.083-3.631 45.372-41.713 81.18-88.003 81.18-23.682 0-46.173-9.531-62.611-26.052-16.358 23.221-43.334 37.587-72.269 37.587zm-76.594-113.739c2.928 0 5.728 1.261 7.671 3.478 2.086 2.382 2.949 5.596 2.334 8.702-.862 4.356-1.299 8.82-1.299 13.271 0 37.434 30.455 67.889 67.889 67.889 26.247 0 50.398-15.373 61.528-39.166 1.545-3.303 4.735-5.529 8.367-5.84 3.62-.31 7.156 1.339 9.239 4.332 12.711 18.245 33.551 29.138 55.746 29.138 37.434 0 67.889-30.455 67.889-67.889 0-.43-.008-.859-.017-1.287-.105-5.223 3.754-9.681 8.938-10.326 33.866-4.214 59.406-33.174 59.406-67.362 0-33.705-25.133-62.61-58.461-67.235-3.479-.483-6.465-2.722-7.902-5.927-1.438-3.206-1.126-6.924.826-9.844 7.463-11.163 11.409-24.191 11.409-37.676 0-37.434-30.455-67.889-67.889-67.889-13.667 0-26.84 4.042-38.097 11.69-4.456 3.027-10.497 2.068-13.794-2.191-12.977-16.752-32.552-26.36-53.705-26.36-26.859 0-51.24 15.878-62.113 40.452-2.179 4.924-7.811 7.307-12.861 5.44-7.518-2.777-15.432-4.186-23.522-4.186-37.434 0-67.889 30.455-67.889 67.889 0 8.959 1.72 17.666 5.11 25.879 1.803 4.369.368 9.405-3.467 12.168-17.698 12.747-28.263 33.355-28.263 55.127 0 37.434 30.455 67.889 67.889 67.889 1.416 0 2.853-.048 4.396-.146.209-.013.426-.02.642-.02z"/><path d="m69.392 473.843c-16.676 0-31.062-10.547-36.442-25.638-18.622-2.785-32.95-18.887-32.95-38.272 0-21.339 17.36-38.7 38.699-38.7 2.814 0 5.582.298 8.284.89 7.211-7.53 17.17-11.851 27.89-11.851 21.339 0 38.7 17.36 38.7 38.699 0 8.418-2.753 16.542-7.722 23.182 1.477 4.147 2.241 8.539 2.241 12.991-.001 21.339-17.362 38.699-38.7 38.699zm-28.309-45.716c5.144 0 9.547 3.871 10.127 9.073 1.029 9.262 8.846 16.245 18.182 16.245 10.091 0 18.3-8.209 18.3-18.3 0-3.368-.92-6.655-2.66-9.509-2.574-4.219-1.752-9.678 1.951-12.952 3.934-3.479 6.191-8.478 6.191-13.713 0-10.091-8.21-18.3-18.301-18.3-6.397 0-12.226 3.26-15.593 8.718-2.707 4.389-8.261 6.07-12.947 3.912-2.406-1.108-4.975-1.67-7.634-1.67-10.091 0-18.3 8.21-18.3 18.301s8.209 18.3 18.3 18.3c.45 0 .953-.023 1.533-.071.286-.022.57-.034.851-.034z"/><path d="m353.75 397.686c-9.953 0-19.759-2.599-28.357-7.517-4.889-2.797-6.587-9.028-3.79-13.918 2.796-4.888 9.025-6.588 13.918-3.79 5.519 3.157 11.823 4.825 18.229 4.825 9.652 0 18.771-3.709 25.682-10.444 4.033-3.932 10.491-3.848 14.423.185 3.931 4.034 3.848 10.491-.186 14.423-10.741 10.471-24.918 16.236-39.919 16.236zm46.273-38.673c-.596 0-1.199-.052-1.806-.16-5.545-.991-9.237-6.29-8.246-11.834.142-.792.258-1.598.347-2.393.622-5.598 5.655-9.635 11.264-9.009 5.598.622 9.631 5.666 9.009 11.264-.138 1.239-.319 2.493-.54 3.726-.882 4.939-5.181 8.406-10.028 8.406z"/><path d="m185.285 191.634c-12.835 0-20.003 6.835-20.003 21.503v48.507c0 14.668 7.168 21.503 20.336 21.503 17.003 0 18.503-11.502 19.169-18.836.334-4.335 3.834-5.835 8.668-5.835 6.167 0 9.002 1.834 9.002 9.168 0 18.336-15.169 31.172-38.006 31.172-20.17 0-36.84-10.169-36.84-37.172v-48.507c0-27.004 16.836-37.172 37.006-37.172 22.837 0 37.839 12.501 37.839 30.171 0 7.501-2.833 9.168-8.835 9.168-5.334 0-8.668-1.834-8.835-5.834-.332-5.834-2.332-17.836-19.501-17.836z"/><path d="m237.791 261.645v-48.507c0-27.004 16.17-37.172 37.339-37.172 21.003 0 37.506 10.168 37.506 37.172v48.507c0 27.004-16.503 37.172-37.506 37.172-21.169 0-37.339-10.168-37.339-37.172zm57.176-48.508c0-14.668-7.5-21.503-19.835-21.503-12.502 0-19.67 6.835-19.67 21.503v48.507c0 14.668 7.168 21.503 19.67 21.503 12.335 0 19.835-6.834 19.835-21.503z"/><path d="m363.813 175.965c19.337 0 35.673 13.168 35.673 33.172 0 35.839-54.008 47.507-54.008 66.677v6.334h49.008c3 0 5.834 3.501 5.834 7.669 0 4.166-2.833 8.001-5.834 8.001h-59.343c-3.335 0-7.835-2.334-7.835-5.834v-16.17c0-27.004 54.508-40.506 54.508-66.177 0-8.168-5.333-17.503-18.003-17.503-9.334 0-16.836 5.168-16.836 16.502 0 3.334-3.5 6.668-9.334 6.668-4.667 0-8.001-2.334-8.001-9.835-.001-17.836 16.002-29.504 34.171-29.504z"/></g></svg>