<svg viewBox="0 0 512 512" xmlns="http://www.w3.org/2000/svg"><path d="m139.367 50.682h77.659v46.671h-77.659z" fill="#2d2e30"/><path d="m178.196 50.682h38.829v46.671h-38.829z" fill="#1d1d1f"/><path d="m139.367 50.682h77.659v17.606h-77.659z" fill="#1d1d1f"/><path d="m102.104 117.849v365.351c0 15.905 12.894 28.799 28.799 28.799h250.192c15.905 0 28.799-12.894 28.799-28.799v-220.841c0-7.638-3.034-14.963-8.435-20.364l-144.508-144.51c-5.401-5.401-12.726-8.435-20.364-8.435h-105.683c-15.906 0-28.8 12.894-28.8 28.799z" fill="#8a8a91"/><path d="m226.14 0h-95.884c-6.41 0-11.605 5.195-11.605 11.605v32.473c0 6.41 5.195 11.605 11.605 11.605h95.884c6.41 0 11.605-5.195 11.605-11.605v-32.473c0-6.41-5.196-11.605-11.605-11.605z" fill="#497fc1"/><path d="m256.951 97.485c-.28-.28-.569-.55-.859-.818v415.333h125.005c15.905 0 28.799-12.894 28.799-28.799v-220.842c0-7.638-3.034-14.963-8.435-20.364z" fill="#3e3e42"/><circle cx="254.219" cy="316.535" fill="#d9d8db" r="95.432"/><path d="m256.09 221.154v190.768c51.835-1.004 93.554-43.309 93.554-95.384s-41.718-94.38-93.554-95.384z" fill="#797882"/><path d="m295.804 331.074c0 21.983-17.821 39.804-39.804 39.804s-39.804-17.821-39.804-39.804c0-15.61 20.069-52.041 31.706-71.855 3.631-6.182 12.565-6.182 16.195 0 11.637 19.813 31.707 56.245 31.707 71.855z" fill="#57565c"/><path d="m256 254.582v116.295c21.983 0 39.804-17.821 39.804-39.804 0-15.61-20.069-52.041-31.706-71.855-1.816-3.091-4.957-4.636-8.098-4.636z" fill="#1d1d1f"/><path d="m178.197 0h-47.943c-6.41 0-11.605 5.195-11.605 11.605v32.473c0 6.41 5.195 11.605 11.605 11.605h47.943z" fill="#779dd2"/></svg>